<svg width="235" height="215" viewBox="0 0 235 215" fill="none" xmlns="http://www.w3.org/2000/svg">
<g id="Background">
<circle id="Ellipse 379" cx="117.273" cy="118.892" r="95.8982" fill="#ECF6EF"/>
<circle id="Ellipse 384" cx="27.3857" cy="54.1396" r="6.01071" fill="#ECF6EF"/>
<circle id="Ellipse 381" cx="150.605" cy="11.7916" r="11.2018" fill="#ECF6EF"/>
<circle id="Ellipse 382" cx="36.4024" cy="195.392" r="10.6554" fill="#ECF6EF"/>
<circle id="Ellipse 383" cx="220.002" cy="170.256" r="10.6554" fill="#ECF6EF"/>
<circle id="Ellipse 385" cx="199.238" cy="182.277" r="5.19107" fill="#ECF6EF"/>
<path id="Star 1" d="M122.752 27.6581C122.435 27.5907 122.435 27.1386 122.752 27.0712L127.542 26.0526C127.657 26.0281 127.748 25.9381 127.773 25.8228L128.804 21.0667C128.872 20.7515 129.322 20.7515 129.39 21.0667L130.422 25.8228C130.447 25.9381 130.537 26.0281 130.652 26.0526L135.442 27.0712C135.759 27.1386 135.759 27.5907 135.442 27.6581L130.652 28.6767C130.537 28.7012 130.447 28.7912 130.422 28.9065L129.39 33.6626C129.322 33.9778 128.872 33.9778 128.804 33.6626L127.773 28.9065C127.748 28.7912 127.657 28.7012 127.542 28.6767L122.752 27.6581Z" fill="#8ECEA3"/>
<path id="Star 2" d="M13.3005 125.515C13.4228 124.938 14.2474 124.938 14.3697 125.515L16.1963 134.145C16.2408 134.355 16.4045 134.52 16.6146 134.566L25.155 136.426C25.7285 136.551 25.7285 137.369 25.155 137.494L16.6146 139.354C16.4045 139.4 16.2408 139.565 16.1963 139.775L14.3697 148.405C14.2474 148.982 13.4228 148.982 13.3005 148.405L11.4739 139.775C11.4294 139.565 11.2657 139.4 11.0557 139.354L2.51526 137.494C1.94177 137.369 1.94177 136.551 2.51526 136.426L11.0557 134.566C11.2657 134.52 11.4294 134.355 11.4739 134.145L13.3005 125.515Z" fill="#8ECEA3"/>
<path id="Star 3" d="M202.978 56.6652C203.1 56.0875 203.925 56.0875 204.047 56.6652L205.113 61.6995C205.157 61.9098 205.321 62.0745 205.531 62.1202L210.528 63.2087C211.101 63.3337 211.101 64.1516 210.528 64.2765L205.531 65.365C205.321 65.4108 205.157 65.5755 205.113 65.7858L204.047 70.82C203.925 71.3977 203.1 71.3977 202.978 70.82L201.912 65.7858C201.868 65.5755 201.704 65.4108 201.494 65.365L196.498 64.2765C195.924 64.1516 195.924 63.3337 196.498 63.2087L201.494 62.1202C201.704 62.0745 201.868 61.9098 201.912 61.6995L202.978 56.6652Z" fill="#8ECEA3"/>
<path id="Star 4" d="M225.007 137.378L226.68 145.283L234.473 146.981L226.68 148.678L225.007 156.584L223.333 148.678L215.541 146.981L223.333 145.283L225.007 137.378Z" fill="white"/>
<path id="Vector 134" d="M171.643 75.4507L42.4131 124.902L70.0077 201.676L86.6738 209.052L107.438 213.424L128.476 212.604L140.77 210.419L151.699 207.14L169.731 197.851L185.031 185.829L186.212 184.302C192.88 175.683 198.792 166.504 203.883 156.869L171.643 75.4507Z" fill="url(#paint0_linear_116_5396)"/>
</g>
<defs>
<linearGradient id="paint0_linear_116_5396" x1="106" y1="104.5" x2="147.5" y2="208" gradientUnits="userSpaceOnUse">
<stop stop-color="#ECF6EF"/>
<stop offset="1" stop-color="#8ECEA3"/>
</linearGradient>
</defs>
</svg>
