<svg width="226" height="234" viewBox="0 0 226 234" fill="none" xmlns="http://www.w3.org/2000/svg">
<g id="background">
<circle id="Ellipse 5" cx="129.655" cy="128.748" r="95.8982" fill="#ECF6EF"/>
<circle id="Ellipse 4" cx="22.2819" cy="101.699" r="21.8571" fill="#ECF6EF"/>
<circle id="Ellipse 3" cx="64.357" cy="14.2711" r="13.6607" fill="#ECF6EF"/>
<circle id="Ellipse 2" cx="214.898" cy="32.0304" r="10.6554" fill="#ECF6EF"/>
<circle id="Ellipse 1" cx="211.62" cy="192.133" r="5.19107" fill="#ECF6EF"/>
<path id="Star 1" d="M154.652 38.1446C154.245 38.058 154.245 37.4767 154.652 37.39L160.81 36.0805C160.959 36.0489 161.075 35.9332 161.107 35.7849L162.433 29.67C162.521 29.2647 163.099 29.2647 163.187 29.67L164.513 35.7849C164.545 35.9332 164.661 36.0489 164.81 36.0805L170.968 37.39C171.375 37.4767 171.375 38.058 170.968 38.1446L164.81 39.4542C164.661 39.4857 164.545 39.6014 164.513 39.7497L163.187 45.8647C163.099 46.27 162.521 46.27 162.433 45.8647L161.107 39.7497C161.075 39.6014 160.959 39.4857 160.81 39.4542L154.652 38.1446Z" fill="#8ECEA3"/>
<path id="Star 2" d="M16.6599 141.099C16.7822 140.522 17.6068 140.522 17.7291 141.099L19.5557 149.729C19.6002 149.939 19.7639 150.104 19.974 150.15L28.5144 152.01C29.0879 152.135 29.0879 152.953 28.5144 153.078L19.974 154.938C19.7639 154.984 19.6002 155.149 19.5557 155.359L17.7291 163.989C17.6068 164.566 16.7822 164.566 16.6599 163.989L14.8333 155.359C14.7888 155.149 14.6251 154.984 14.415 154.938L5.87463 153.078C5.30114 152.953 5.30114 152.135 5.87463 152.01L14.415 150.15C14.6251 150.104 14.7888 149.939 14.8333 149.729L16.6599 141.099Z" fill="#8ECEA3"/>
<path id="Star 3" d="M154.889 216.424C155.011 215.846 155.836 215.846 155.958 216.424L157.024 221.458C157.068 221.668 157.232 221.833 157.442 221.879L162.439 222.967C163.012 223.092 163.012 223.91 162.439 224.035L157.442 225.123C157.232 225.169 157.068 225.334 157.024 225.544L155.958 230.578C155.836 231.156 155.011 231.156 154.889 230.578L153.824 225.544C153.779 225.334 153.615 225.169 153.405 225.123L148.409 224.035C147.835 223.91 147.835 223.092 148.409 222.967L153.405 221.879C153.615 221.833 153.779 221.668 153.824 221.458L154.889 216.424Z" fill="#8ECEA3"/>
</g>
</svg>
