<svg width="587" height="500" viewBox="0 0 587 500" fill="none" xmlns="http://www.w3.org/2000/svg">
<path d="M157.766 477.014C131.748 368.316 92.2588 150.781 137.397 130.996C139.448 130.1 141.684 129.514 143.756 128.653L315.33 57.1999" stroke="#A0A0A0" stroke-width="5" stroke-linecap="round"/>
<path d="M154.661 151.429C135.262 187.888 165.41 341.612 189.747 442.665C195.04 464.695 219.068 476.242 239.944 467.186L376.771 407.814" stroke="#A0A0A0" stroke-width="5" stroke-linecap="round"/>
<path d="M188.843 153.625C196.713 144.068 204.845 110.323 186.577 93.0715C183.43 90.0649 179.464 87.5658 174.557 85.779C141.429 73.6896 120.296 114.762 140.221 128.896" stroke="#A0A0A0" stroke-width="5" stroke-linecap="round"/>
<path d="M186.066 91.5687C188.89 73.0485 212.976 53.706 242.014 69.7662C273.214 91.7776 257.539 124.146 243.313 135.439" stroke="#A0A0A0" stroke-width="5" stroke-linecap="round"/>
<path d="M243.327 68.1759C249.246 53.576 271.567 25.4228 301.015 36.9955C340.564 58.5288 317.796 100.95 301.245 106.379" stroke="#A0A0A0" stroke-width="5" stroke-linecap="round"/>
<path d="M300.682 34.98C309.674 18.7633 332.109 3.08921 354.018 18.5923C375.93 34.0989 368.978 75.1899 346.713 88.344" stroke="#A0A0A0" stroke-width="5" stroke-linecap="round"/>
<path d="M246.188 208.252C279.519 198.571 303.202 193.508 328.261 170.275" stroke="#A0A0A0" stroke-width="5" stroke-linecap="round"/>
<path d="M258.871 261.121C289.98 256.291 315.96 244.941 344.675 234.314" stroke="#A0A0A0" stroke-width="5" stroke-linecap="round"/>
<path d="M269.316 316.224C304.426 310.9 330.749 311.488 349.152 284.949" stroke="#A0A0A0" stroke-width="5" stroke-linecap="round"/>
<path d="M280.51 363.881C298.079 361.523 314.661 357.974 337.215 340.053" stroke="#A0A0A0" stroke-width="5" stroke-linecap="round"/>
<path d="M477.486 455.473C429.734 422.709 343.93 365.372 381.236 295.376C405.55 249.757 456.709 266.998 476.19 282.402C476.956 283.007 478.019 283.01 478.785 282.404C497.256 267.795 545.383 247.667 574.482 295.376C605.819 346.755 549.114 405.582 510.316 430.155" stroke="black" stroke-width="5" stroke-linecap="round"/>
<path d="M412.116 315.78C428.585 285 463.046 296.19 476.684 306.604C477.458 307.195 478.534 307.2 479.307 306.609C492.392 296.596 526.997 282.298 544.386 315.78C565.982 357.361 506.183 406.845 479.076 424.25C478.405 424.681 477.586 424.658 476.927 424.208L476.469 423.895C443.524 401.394 386.975 362.771 412.116 315.78Z" fill="black"/>
<path d="M358.852 77.1973L398.396 248.462" stroke="#A0A0A0" stroke-width="5" stroke-linecap="round"/>
<path d="M196.943 227.613L206.804 233.148C207.888 233.757 209.258 233.239 209.67 232.066L219.327 204.529" stroke="#A0A0A0" stroke-width="5" stroke-linecap="round"/>
<path d="M208.881 278.248L218.741 283.783C219.825 284.391 221.196 283.874 221.607 282.701L231.265 255.164" stroke="#A0A0A0" stroke-width="5" stroke-linecap="round"/>
<path d="M220.818 328.882L230.679 334.418C231.763 335.026 233.133 334.509 233.545 333.336L243.202 305.799" stroke="#A0A0A0" stroke-width="5" stroke-linecap="round"/>
<path d="M232.758 379.517L242.618 385.052C243.702 385.661 245.073 385.144 245.484 383.97L255.142 356.434" stroke="#A0A0A0" stroke-width="5" stroke-linecap="round"/>
</svg>
