<svg xmlns="http://www.w3.org/2000/svg" viewBox="0 0 64 80" x="0px" y="0px"><path d="m32.99,33v18c0,.55-.45,1-1,1s-1-.45-1-1v-18c0-.55.45-1,1-1s1,.45,1,1Zm28.2,14.24s0,0,0,0c-.59.71-1.44,1.07-2.3,1.07-.68,0-1.37-.23-1.93-.7l-.94-.79-.85,8.48c-.15,1.54-1.43,2.7-2.99,2.7H11.81c-1.55,0-2.83-1.16-2.99-2.7l-.85-8.48-.94.79c-.56.47-1.25.7-1.93.7-.86,0-1.71-.36-2.3-1.07t0,0c-1.06-1.27-.9-3.16.37-4.23l4.08-3.43-1.16-11.58h-1.1c-1.1,0-2-.9-2-2v-4c0-1.1.9-2,2-2h54c1.1,0,2,.9,2,2v4c0,1.1-.9,2-2,2h-1.09l-1.16,11.59,4.08,3.42c1.27,1.06,1.43,2.96.37,4.23Zm-5.3-19.24h-12.94l11.94,10.03,1-10.03Zm-50.9-2h18.43l1.96-1.65c.61-.52,1.39-.77,2.19-.69.8.07,1.52.45,2.04,1.06.32.38.52.82.62,1.28h3.53c.1-.47.3-.91.62-1.28.52-.61,1.24-.99,2.04-1.06.8-.07,1.58.18,2.19.69l1.96,1.65h18.43v-4H5v4Zm4.11,12.03l11.94-10.03h-12.94l1,10.03Zm18.86-10.62c.2-.17.33-.41.35-.68.02-.27-.06-.53-.23-.73-.17-.21-.41-.33-.68-.35-.27-.02-.53.06-.73.23L4.46,44.54c-.42.35-.48.99-.12,1.41.35.42.99.48,1.41.12l22.21-18.66Zm26.21,17.85l-7.18-6.03v11.77c0,.55-.45,1-1,1s-1-.45-1-1v-13.45l-4.99-4.19v17.65c0,.55-.45,1-1,1s-1-.45-1-1v-18c0-.38.22-.7.54-.87l-3.79-3.18c-.32-.27-.57-.59-.75-.95h-4.01c-.18.36-.43.68-.75.95l-3.79,3.18c.32.17.54.49.54.87v18c0,.55-.45,1-1,1s-1-.45-1-1v-17.64l-4.99,4.19v13.45c0,.55-.45,1-1,1s-1-.45-1-1v-11.77l-7.18,6.03.99,9.84c.05.51.48.9,1,.9h40.38c.52,0,.94-.39,1-.9l.99-9.84Zm5.37-.72l-22.21-18.66c-.18-.15-.41-.23-.64-.23-.03,0-.06,0-.09,0-.27.02-.51.15-.68.35-.17.2-.25.46-.23.73.02.27.15.51.35.68l22.21,18.66c.42.36,1.06.3,1.41-.12s.3-1.05-.12-1.41ZM23.51,16.93c.2.2.45.29.71.29s.51-.1.71-.29c.39-.39.39-1.02,0-1.41l-4.24-4.24c-.39-.39-1.02-.39-1.41,0s-.39,1.02,0,1.41l4.24,4.24Zm8.49-2.93c.55,0,1-.45,1-1v-6c0-.55-.45-1-1-1s-1,.45-1,1v6c0,.55.45,1,1,1Zm7.78,3.22c.26,0,.51-.1.71-.29l4.24-4.24c.39-.39.39-1.02,0-1.41s-1.02-.39-1.41,0l-4.24,4.24c-.39.39-.39,1.02,0,1.41.2.2.45.29.71.29Z"/></svg>